<?xml version="1.0" standalone="no"?><!DOCTYPE svg PUBLIC "-//W3C//DTD SVG 1.1//EN" "http://www.w3.org/Graphics/SVG/1.1/DTD/svg11.dtd"><svg t="1516195326887" class="icon" style="" viewBox="0 0 1024 1024" version="1.1" xmlns="http://www.w3.org/2000/svg" p-id="2188" xmlns:xlink="http://www.w3.org/1999/xlink" width="200" height="200"><defs><style type="text/css"></style></defs><path d="M728.559 564.809c-88.866 0-161.171 72.287-161.171 161.171s72.287 161.171 161.171 161.171 161.171-72.287 161.189-161.171c0-88.885-72.305-161.171-161.189-161.171zM744.194 360.454c65.053 0 118.009-52.937 118.009-117.972-0.092-65.133-52.874-117.909-118.001-117.991-65.148 0.062-117.934 52.851-117.999 117.985 0.062 65.14 52.854 117.926 117.985 117.979z" fill="#CFCF5A" p-id="2189"></path><path d="M724.899 213.434c4.448 0 8.788-2.141 11.495-6.132 11.475-16.986 30.659-28.004 52.417-28.004 0.025 0 0.054 0 0.081 0 7.325-0.393 13.123-6.429 13.123-13.819 0-7.393-5.797-13.431-13.092-13.818-0.048-0.001-0.065-0.001-0.080-0.001-31.297 0-58.897 15.838-75.22 39.931-1.663 2.479-2.539 5.141-2.539 8.007 0 7.634 6.178 13.821 13.807 13.837zM234.375 452.566c-0.782-0.158-1.682-0.25-2.604-0.25-6.713 0-12.307 4.793-13.547 11.143-0.597 2.607-0.932 5.497-0.932 8.467 0 0.745 0.021 1.478 0.062 2.209l0.069 3.173c0.393 7.332 6.429 13.126 13.819 13.126s13.431-5.797 13.818-13.092c0.001-1.845-0.035-3.164-0.071-4.244-0.022-0.309-0.037-0.668-0.037-1.030 0-1.167 0.141-2.302 0.405-3.387 0.147-0.702 0.241-1.618 0.241-2.561 0-2.877-0.891-5.549-2.414-7.749-2.167-3.219-5.66-5.461-9.696-5.951zM319.163 375.541c-0.006 0-0.023 0-0.037 0-35.069 0-65.989 17.77-84.244 44.799-1.694 2.519-2.566 5.181-2.566 8.045 0 7.626 6.181 13.807 13.807 13.807 4.757 0 8.954-2.407 11.437-6.070 13.526-20 36.065-32.937 61.633-32.94 7.621-0.003 13.806-6.191 13.806-13.819 0-7.634-6.189-13.819-13.819-13.819-0.002 0-0.004 0-0.005 0z" fill="#848D2F" p-id="2190"></path><path d="M769.913 598.544c-0.039 0-0.085 0-0.132 0-39.135 0-73.636 19.833-94.007 49.99-1.584 2.489-2.37 5.025-2.37 7.75 0 7.634 6.189 13.819 13.819 13.819 4.621 0 8.715-2.27 11.222-5.753 15.65-23.186 41.779-38.207 71.414-38.207 0.020 0 0.039 0 0.057 0-0.002 0-0.002 0-0.002 0 7.621 0 13.803-6.178 13.803-13.803 0-7.621-6.178-13.803-13.803-13.803 0 0 0 0 0 0z" fill="#848D2F" p-id="2191"></path><path d="M726.729 509.53c-80.705 0-151.069 44.445-188.281 110.065l-98.147-48.122c15.442-27.119 24.545-59.585 24.545-94.178 0-21.67-3.716-42.412-10.304-61.906l150.807-64.873c31.935 39.869 80.612 65.18 135.204 65.183 95.541 0 173.245-77.702 173.264-173.233 0-95.569-77.722-173.27-173.27-173.27s-173.253 77.702-173.253 173.27c0 20.975 3.937 41.004 10.8 59.653l-148.595 63.901c-35.127-49.935-93.098-82.738-158.663-82.738-106.954 0-193.972 87.020-193.972 193.993 0 106.954 87.020 193.993 193.972 193.993 52.533 0 100.18-21.049 135.145-55.097l111.678 54.767c-4.814 17.938-7.286 36.428-7.357 55.006 0 119.364 97.087 216.413 216.433 216.413s216.452-97.071 216.452-216.413c0-119.309-97.123-216.413-216.452-216.413zM740.551 124.475c65.134 0.084 117.917 52.858 118.009 117.981 0 65.063-52.975 117.981-118.009 117.981-65.133-0.062-117.918-52.842-117.991-117.966 0.062-65.147 52.851-117.934 117.985-117.999zM270.233 620.124c-78.691 0-142.449-63.755-142.449-142.449s63.755-142.463 142.449-142.463 142.463 63.772 142.463 142.463-63.772 142.449-142.463 142.449zM726.729 887.133c-88.885 0-161.171-72.268-161.171-161.171 0-88.866 72.268-161.171 161.171-161.171 88.852 0 161.189 72.287 161.189 161.171-0.019 88.885-72.321 161.171-161.189 161.171z" fill="#504C23" p-id="2192"></path></svg>