<?xml version="1.0" standalone="no"?><!DOCTYPE svg PUBLIC "-//W3C//DTD SVG 1.1//EN" "http://www.w3.org/Graphics/SVG/1.1/DTD/svg11.dtd"><svg t="1516194567181" class="icon" style="" viewBox="0 0 1024 1024" version="1.1" xmlns="http://www.w3.org/2000/svg" p-id="1090" xmlns:xlink="http://www.w3.org/1999/xlink" width="200" height="200"><defs><style type="text/css"></style></defs><path d="M801.492 355.112l80.414 144.438L512 997.964 142.094 499.628l80.414-144.516z" fill="#FAEDD6" p-id="1091"></path><path d="M383.336 499.246h289.492L512 354.5z" fill="#36C9A3" p-id="1092"></path><path d="M512 981.73l144.746-482.484 144.746-144.746 80.414 144.746zM512 981.73l-144.746-482.484-144.746-144.746-80.414 144.746z" fill="#36C9A3" p-id="1093"></path><path d="M607.688 159.556c-18.842-18.842-49.392-18.842-68.234 0l-11.372 11.372-11.372-11.372c-18.842-18.842-49.392-18.842-68.234 0s-18.842 49.392 0 68.234l79.606 79.606 79.606-79.606c18.842-18.844 18.842-49.392 0-68.234z" fill="#FA004B" p-id="1094"></path><path d="M810.716 338.4H213.286L123.5 500.198 512 1024l388.5-523.746-89.784-161.854zM167.978 484.622l57.994-104.506 104.504 104.506h-75.41v31.334h100.726l116.804 402.322-298.4-402.322h47.448v-31.334H167.978z m353.182-114.888l114.89 114.89h-188.804v31.334h188.132l-125.502 418.34-121.454-418.34h27.492v-31.334h-11.878l114.89-114.89h2.234z m44.316 0h198.624l-99.312 99.312-99.312-99.312z m-198.222 107.354l-107.354-107.354h214.708l-107.354 107.354z m300.834 38.868h181.754l-305.18 411.418 123.426-411.418z m25.436-31.334l104.504-104.504 57.97 104.504h-162.474zM528.082 329.552L437.4 238.87c-24.92-24.922-24.92-65.47 0-90.39 12.072-12.072 28.12-18.72 45.194-18.72 17.072 0 33.124 6.648 45.196 18.722l0.294 0.294 0.294-0.296c12.072-12.07 28.122-18.72 45.196-18.72 17.072 0 33.124 6.648 45.198 18.72v0.002c24.918 24.92 24.918 65.468 0 90.388l-90.69 90.682z m-45.49-168.462a32.376 32.376 0 0 0-23.038 9.542c-12.704 12.704-12.704 33.376 0 46.078l68.528 68.53 68.528-68.53c12.702-12.702 12.702-33.374 0-46.078a32.368 32.368 0 0 0-23.038-9.542 32.368 32.368 0 0 0-23.036 9.542l-22.452 22.452-22.452-22.45a32.37 32.37 0 0 0-23.04-9.544zM512.008 0h31.334v81.466h-31.334zM587.374 108.272l-22.152-22.16 48.252-48.24 22.154 22.16zM468.748 108.254L420.5 60.008l22.156-22.156 48.246 48.246z" fill="#232323" p-id="1095"></path></svg>